<?xml version="1.0" encoding="UTF-8" standalone="no"?>
<!-- Created with Inkscape (http://www.inkscape.org/) -->

<svg
   xmlns:dc="http://purl.org/dc/elements/1.1/"
   xmlns:cc="http://creativecommons.org/ns#"
   xmlns:rdf="http://www.w3.org/1999/02/22-rdf-syntax-ns#"
   xmlns:svg="http://www.w3.org/2000/svg"
   xmlns="http://www.w3.org/2000/svg"
   xmlns:sodipodi="http://sodipodi.sourceforge.net/DTD/sodipodi-0.dtd"
   xmlns:inkscape="http://www.inkscape.org/namespaces/inkscape"
   width="40"
   height="36"
   viewBox="0 0 10.583333 9.5250003"
   version="1.1"
   id="svg1015"
   inkscape:version="0.92.3 (2405546, 2018-03-11)"
   sodipodi:docname="burn-tool-icon.svg">
  <defs
     id="defs1009">
    <linearGradient
       id="linearGradient2937"
       spreadMethod="pad"
       gradientTransform="matrix(4.6450751,5.6437737,-5.6437737,4.6450751,2.5066768,289.36497)"
       gradientUnits="userSpaceOnUse"
       y2="0"
       x2="1"
       y1="0"
       x1="0">
      <stop
         id="stop2927"
         offset="0"
         style="stop-opacity:1;stop-color:#d2d3d4" />
      <stop
         id="stop2929"
         offset="0.242294"
         style="stop-opacity:1;stop-color:#d2d3d4" />
      <stop
         id="stop2931"
         offset="0.45444669"
         style="stop-opacity:1;stop-color:#c6c8ca" />
      <stop
         id="stop2933"
         offset="0.67485"
         style="stop-opacity:1;stop-color:#c6c8ca" />
      <stop
         id="stop2935"
         offset="1"
         style="stop-opacity:1;stop-color:#c6c8ca" />
    </linearGradient>
  </defs>
  <sodipodi:namedview
     id="base"
     pagecolor="#ffffff"
     bordercolor="#666666"
     borderopacity="1.0"
     inkscape:pageopacity="0.0"
     inkscape:pageshadow="2"
     inkscape:zoom="15.839192"
     inkscape:cx="9.9176962"
     inkscape:cy="18.876004"
     inkscape:document-units="mm"
     inkscape:current-layer="layer1"
     showgrid="false"
     units="px"
     inkscape:window-width="1600"
     inkscape:window-height="838"
     inkscape:window-x="-8"
     inkscape:window-y="-8"
     inkscape:window-maximized="1" />
  <metadata
     id="metadata1012">
    <rdf:RDF>
      <cc:Work
         rdf:about="">
        <dc:format>image/svg+xml</dc:format>
        <dc:type
           rdf:resource="http://purl.org/dc/dcmitype/StillImage" />
        <dc:title></dc:title>
      </cc:Work>
    </rdf:RDF>
  </metadata>
  <g
     inkscape:label="Layer 1"
     inkscape:groupmode="layer"
     id="layer1"
     transform="translate(0,-287.47498)">
    <path
       inkscape:connector-curvature="0"
       id="path2939"
       style="fill:url(#linearGradient2937);stroke:none;stroke-width:0.18109569"
       d="m 2.560004,290.04351 c -1.1970423,0.75374 -0.9835304,2.58262 -0.6195282,2.70196 v 0 c 0.2986268,0.098 0.5646563,-0.29139 0.8768653,-0.68075 v 0 c 0.437346,-0.54527 0.9656022,-1.09056 1.801902,-0.29751 v 0 c 0.8522363,0.80749 -0.4398814,1.8609 -0.777987,1.71152 v 0 C 3.3365424,293.25562 2.1165009,292.74547 1.9855686,293.0479 v 0 c -0.1316566,0.30297 0.3136578,1.23652 1.6186331,1.57155 v 0 c 1.3049754,0.33539 2.4875303,-0.38664 3.5286497,-0.44622 v 0 c 1.0416624,-0.0599 1.3047942,1.10107 1.3047942,1.10107 v 0 l 0.5262639,-2.82493 c 0,0 -0.023723,0.0478 -1.5076211,-1.41236 v 0 c -0.9589022,-0.94352 -2.2220445,-1.39735 -3.3191221,-1.39735 v 0 c -0.6014187,2e-4 -1.1532171,0.13675 -1.5771623,0.40385" />
    <path
       inkscape:connector-curvature="0"
       id="path2951"
       style="fill:none;stroke:#767676;stroke-width:0.09054784;stroke-linecap:round;stroke-linejoin:miter;stroke-miterlimit:4;stroke-dasharray:none;stroke-opacity:1"
       d="m 8.4376456,295.27427 c 0,0 -0.2631318,-1.16119 -1.3047949,-1.10107 -1.041119,0.0596 -2.2236737,0.7816 -3.5286492,0.44622 -1.3049754,-0.33502 -1.7501086,-1.26856 -1.6186331,-1.57138 0.1309322,-0.30258 1.0671968,0.16898 1.5697373,0.39644 0.5023594,0.22764 1.9161735,-0.86963 1.0639371,-1.67731 -0.7113438,-0.67439 -1.2935664,-0.45438 -1.5963583,0.0521 -0.410725,0.68798 -0.6816442,0.89153 -1.06937,0.80805 -0.3748681,-0.0803 -0.5905531,-1.82998 0.6064894,-2.58388 1.1972234,-0.75428 3.4116613,-0.46687 4.8962839,0.99368 1.4838979,1.46017 1.5076213,1.41235 1.5076213,1.41235" />
    <path
       inkscape:connector-curvature="0"
       id="path2955"
       style="fill:none;stroke:#767676;stroke-width:0.09054784;stroke-linecap:round;stroke-linejoin:miter;stroke-miterlimit:4;stroke-dasharray:none;stroke-opacity:1"
       d="m 1.7844081,291.12534 c 0,0 0.857488,-0.68202 1.3393835,-0.84646 0.4811713,-0.16442 1.0219228,-0.094 1.0219228,-0.094" />
    <path
       inkscape:connector-curvature="0"
       id="path2959"
       style="fill:none;stroke:#767676;stroke-width:0.09054784;stroke-linecap:round;stroke-linejoin:miter;stroke-miterlimit:4;stroke-dasharray:none;stroke-opacity:1"
       d="m 5.092681,292.35339 c 0,0 -0.066461,0.0364 -0.2339755,0.19776" />
  </g>
</svg>
