<?xml version="1.0" encoding="UTF-8" standalone="no"?>
<!-- Created with Inkscape (http://www.inkscape.org/) -->

<svg
   xmlns:dc="http://purl.org/dc/elements/1.1/"
   xmlns:cc="http://creativecommons.org/ns#"
   xmlns:rdf="http://www.w3.org/1999/02/22-rdf-syntax-ns#"
   xmlns:svg="http://www.w3.org/2000/svg"
   xmlns="http://www.w3.org/2000/svg"
   xmlns:sodipodi="http://sodipodi.sourceforge.net/DTD/sodipodi-0.dtd"
   xmlns:inkscape="http://www.inkscape.org/namespaces/inkscape"
   width="40"
   height="36"
   viewBox="0 0 10.583333 9.5250003"
   version="1.1"
   id="svg17575"
   sodipodi:docname="color-picker-tool-icon.svg"
   inkscape:version="0.92.3 (2405546, 2018-03-11)">
  <defs
     id="defs17569">
    <clipPath
       clipPathUnits="userSpaceOnUse"
       id="clipPath2876">
      <path
         d="M 0,595.276 H 841.89 V 0 H 0 Z"
         id="path2874"
         inkscape:connector-curvature="0" />
    </clipPath>
    <linearGradient
       x1="0"
       y1="0"
       x2="1"
       y2="0"
       gradientUnits="userSpaceOnUse"
       gradientTransform="matrix(4.5513763,-13.182266,-13.182266,-4.5513763,429.08496,485.31543)"
       spreadMethod="pad"
       id="linearGradient2866">
      <stop
         style="stop-opacity:1;stop-color:#424143"
         offset="0"
         id="stop2856" />
      <stop
         style="stop-opacity:1;stop-color:#424143"
         offset="0.0464478"
         id="stop2858" />
      <stop
         style="stop-opacity:1;stop-color:#595a5c"
         offset="0.33233721"
         id="stop2860" />
      <stop
         style="stop-opacity:1;stop-color:#595a5c"
         offset="0.412918"
         id="stop2862" />
      <stop
         style="stop-opacity:1;stop-color:#595a5c"
         offset="1"
         id="stop2864" />
    </linearGradient>
    <clipPath
       clipPathUnits="userSpaceOnUse"
       id="clipPath2838">
      <path
         d="M 0,595.276 H 841.89 V 0 H 0 Z"
         id="path2836"
         inkscape:connector-curvature="0" />
    </clipPath>
    <linearGradient
       x1="0"
       y1="0"
       x2="1"
       y2="0"
       gradientUnits="userSpaceOnUse"
       gradientTransform="matrix(8.9064941,-9.8916626,-9.8916626,-8.9064941,427.62695,486.23389)"
       spreadMethod="pad"
       id="linearGradient2828">
      <stop
         style="stop-opacity:1;stop-color:#a3a5a8"
         offset="0"
         id="stop2818" />
      <stop
         style="stop-opacity:1;stop-color:#a3a5a8"
         offset="0.0464478"
         id="stop2820" />
      <stop
         style="stop-opacity:1;stop-color:#424143"
         offset="0.57495731"
         id="stop2822" />
      <stop
         style="stop-opacity:1;stop-color:#424143"
         offset="0.723923"
         id="stop2824" />
      <stop
         style="stop-opacity:1;stop-color:#424143"
         offset="1"
         id="stop2826" />
    </linearGradient>
    <clipPath
       clipPathUnits="userSpaceOnUse"
       id="clipPath2790">
      <path
         d="M 0,595.276 H 841.89 V 0 H 0 Z"
         id="path2788"
         inkscape:connector-curvature="0" />
    </clipPath>
    <linearGradient
       x1="0"
       y1="0"
       x2="1"
       y2="0"
       gradientUnits="userSpaceOnUse"
       gradientTransform="matrix(0,5.5859375,5.5859375,0,422.78027,495.62598)"
       spreadMethod="pad"
       id="linearGradient2780">
      <stop
         style="stop-opacity:1;stop-color:#939598"
         offset="0"
         id="stop2770" />
      <stop
         style="stop-opacity:1;stop-color:#939598"
         offset="0.32515"
         id="stop2772" />
      <stop
         style="stop-opacity:1;stop-color:#d2d3d4"
         offset="0.55871851"
         id="stop2774" />
      <stop
         style="stop-opacity:1;stop-color:#d2d3d4"
         offset="0.613495"
         id="stop2776" />
      <stop
         style="stop-opacity:1;stop-color:#d2d3d4"
         offset="1"
         id="stop2778" />
    </linearGradient>
    <clipPath
       clipPathUnits="userSpaceOnUse"
       id="clipPath2754">
      <path
         d="M 0,595.276 H 841.89 V 0 H 0 Z"
         id="path2752"
         inkscape:connector-curvature="0" />
    </clipPath>
    <linearGradient
       x1="0"
       y1="0"
       x2="1"
       y2="0"
       gradientUnits="userSpaceOnUse"
       gradientTransform="matrix(0,48.658691,48.658691,0,422.78027,452.55322)"
       spreadMethod="pad"
       id="linearGradient2744">
      <stop
         style="stop-opacity:1;stop-color:#ffffff"
         offset="0"
         id="stop2736" />
      <stop
         style="stop-opacity:1;stop-color:#ffffff"
         offset="0.12589179"
         id="stop2738" />
      <stop
         style="stop-opacity:1;stop-color:#a1a3a5"
         offset="0.828217"
         id="stop2740" />
      <stop
         style="stop-opacity:1;stop-color:#a1a3a5"
         offset="1"
         id="stop2742" />
    </linearGradient>
    <clipPath
       clipPathUnits="userSpaceOnUse"
       id="clipPath1506">
      <path
         d="M 0,595.276 H 841.89 V 0 H 0 Z"
         id="path1504"
         inkscape:connector-curvature="0" />
    </clipPath>
    <linearGradient
       x1="0"
       y1="0"
       x2="1"
       y2="0"
       gradientUnits="userSpaceOnUse"
       gradientTransform="matrix(0,5.5883789,5.5883789,0,419.11475,565.81592)"
       spreadMethod="pad"
       id="linearGradient1496">
      <stop
         style="stop-opacity:1;stop-color:#939598"
         offset="0"
         id="stop1486" />
      <stop
         style="stop-opacity:1;stop-color:#939598"
         offset="0.32515"
         id="stop1488" />
      <stop
         style="stop-opacity:1;stop-color:#d2d3d4"
         offset="0.55871851"
         id="stop1490" />
      <stop
         style="stop-opacity:1;stop-color:#d2d3d4"
         offset="0.613495"
         id="stop1492" />
      <stop
         style="stop-opacity:1;stop-color:#d2d3d4"
         offset="1"
         id="stop1494" />
    </linearGradient>
    <clipPath
       clipPathUnits="userSpaceOnUse"
       id="clipPath1470">
      <path
         d="M 0,595.276 H 841.89 V 0 H 0 Z"
         id="path1468"
         inkscape:connector-curvature="0" />
    </clipPath>
    <linearGradient
       x1="0"
       y1="0"
       x2="1"
       y2="0"
       gradientUnits="userSpaceOnUse"
       gradientTransform="matrix(0,48.65918,48.65918,0,419.11475,522.74512)"
       spreadMethod="pad"
       id="linearGradient1460">
      <stop
         style="stop-opacity:1;stop-color:#ffffff"
         offset="0"
         id="stop1452" />
      <stop
         style="stop-opacity:1;stop-color:#abadb0"
         offset="0.6708818"
         id="stop1454" />
      <stop
         style="stop-opacity:1;stop-color:#abadb0"
         offset="0.828217"
         id="stop1456" />
      <stop
         style="stop-opacity:1;stop-color:#abadb0"
         offset="1"
         id="stop1458" />
    </linearGradient>
  </defs>
  <sodipodi:namedview
     id="base"
     pagecolor="#ffffff"
     bordercolor="#666666"
     borderopacity="1.0"
     inkscape:pageopacity="0.0"
     inkscape:pageshadow="2"
     inkscape:zoom="11.2"
     inkscape:cx="18.258929"
     inkscape:cy="12.427024"
     inkscape:document-units="mm"
     inkscape:current-layer="layer1"
     showgrid="false"
     units="px"
     inkscape:window-width="1600"
     inkscape:window-height="838"
     inkscape:window-x="-8"
     inkscape:window-y="-8"
     inkscape:window-maximized="1" />
  <metadata
     id="metadata17572">
    <rdf:RDF>
      <cc:Work
         rdf:about="">
        <dc:format>image/svg+xml</dc:format>
        <dc:type
           rdf:resource="http://purl.org/dc/dcmitype/StillImage" />
        <dc:title />
      </cc:Work>
    </rdf:RDF>
  </metadata>
  <g
     inkscape:label="Layer 1"
     inkscape:groupmode="layer"
     id="layer1"
     transform="translate(0,-287.47498)">
    <g
       transform="matrix(0.19219733,0,0,-0.19180798,-75.965617,383.70735)"
       id="g2784">
      <g
         id="g2786"
         clip-path="url(#clipPath2790)">
        <g
           id="g2794"
           transform="translate(441.8809,453.4214)" />
        <g
           id="g2798"
           transform="translate(428.3945,473.0957)">
          <path
             d="m 0,0 -13.453,-11.66 c -1.504,-1.298 -2.091,-1.763 -3.544,-1.444 -0.072,0.023 -0.123,0.023 -0.194,0.074 -0.296,-0.37 -0.714,-0.687 -1.158,-0.858 0,0 -1.892,-0.735 -1.968,-0.735 -0.368,0 -0.76,0.171 -1.035,0.366 -0.291,0.466 -0.388,0.98 -0.143,1.398 l 1.056,1.638 c 0.198,0.245 0.494,0.442 0.811,0.615 -0.148,0.243 -0.22,0.513 -0.296,0.735 -0.296,1.174 0.422,1.958 1.922,3.257 L -4.549,5.043 c 1.499,1.301 3.074,1.962 3.518,1.447 L 1.893,3.257 C 2.336,2.767 1.5,1.297 0,0"
             style="fill:#ffffff;fill-opacity:1;fill-rule:nonzero;stroke:none"
             id="path2800"
             inkscape:connector-curvature="0" />
        </g>
        <g
           id="g2802"
           transform="translate(428.3945,473.0957)">
          <path
             d="m 0,0 -13.453,-11.66 c -1.504,-1.298 -2.091,-1.763 -3.544,-1.444 -0.072,0.023 -0.123,0.023 -0.194,0.074 -0.296,-0.37 -0.714,-0.687 -1.158,-0.858 0,0 -1.892,-0.735 -1.968,-0.735 -0.368,0 -0.76,0.171 -1.035,0.366 -0.291,0.466 -0.388,0.98 -0.143,1.398 l 1.056,1.638 c 0.198,0.245 0.494,0.442 0.811,0.615 -0.148,0.243 -0.22,0.513 -0.296,0.735 -0.296,1.174 0.422,1.958 1.922,3.257 L -4.549,5.043 c 1.499,1.301 3.074,1.962 3.518,1.447 L 1.893,3.257 C 2.336,2.767 1.5,1.297 0,0 Z"
             style="fill:none;stroke:#424143;stroke-width:0.34999999;stroke-linecap:butt;stroke-linejoin:miter;stroke-miterlimit:10;stroke-dasharray:none;stroke-opacity:1"
             id="path2804"
             inkscape:connector-curvature="0" />
        </g>
      </g>
    </g>
    <g
       transform="matrix(0.19219733,0,0,-0.19180798,-75.965617,383.70735)"
       id="g2806">
      <g
         id="g2808">
        <g
           id="g2814">
          <g
             id="g2816">
            <path
               d="m 433.184,488.023 -5.706,-5.094 -1.627,1.707 -4.802,-4.583 9.056,-9.498 4.807,4.581 -2.298,2.41 5.52,4.931 c 1.53,1.364 1.664,3.716 0.296,5.247 v 0 c -0.733,0.823 -1.751,1.242 -2.773,1.242 v 0 c -0.882,0 -1.766,-0.311 -2.473,-0.943"
               style="fill:url(#linearGradient2828);stroke:none"
               id="path2830"
               inkscape:connector-curvature="0" />
          </g>
        </g>
      </g>
    </g>
    <g
       transform="matrix(0.19219733,0,0,-0.19180798,-75.965617,383.70735)"
       id="g2832">
      <g
         id="g2834"
         clip-path="url(#clipPath2838)">
        <g
           id="g2840"
           transform="translate(438.4297,487.7231)">
          <path
             d="m 0,0 c -1.363,1.533 -3.717,1.664 -5.246,0.3 l -5.706,-5.094 -1.626,1.706 -4.803,-4.582 9.057,-9.498 4.806,4.581 -2.297,2.41 5.52,4.931 C 1.234,-3.882 1.369,-1.529 0,0 Z"
             style="fill:none;stroke:#59595c;stroke-width:0.1;stroke-linecap:butt;stroke-linejoin:miter;stroke-miterlimit:10;stroke-dasharray:none;stroke-opacity:1"
             id="path2842"
             inkscape:connector-curvature="0" />
        </g>
      </g>
    </g>
    <g
       transform="matrix(0.19219733,0,0,-0.19180798,-75.965617,383.70735)"
       id="g2844">
      <g
         id="g2846">
        <g
           id="g2852">
          <g
             id="g2854">
            <path
               d="m 438.853,484.678 c -0.126,-0.439 -0.52,-1.637 -1.078,-2.136 v 0 l -5.384,-4.47 -4.589,5.235 -0.481,-0.539 6.564,-7.594 -3.924,-3.705 -8.688,9.078 -0.389,-0.376 9.057,-9.616 4.861,4.598 -2.289,2.401 5.478,4.748 c 0.569,0.509 1.255,1.662 1.292,2.376 v 0 z"
               style="fill:url(#linearGradient2866);stroke:none"
               id="path2868"
               inkscape:connector-curvature="0" />
          </g>
        </g>
      </g>
    </g>
    <g
       transform="matrix(0.19219733,0,0,-0.19180798,-75.965617,383.70735)"
       id="g2870">
      <g
         id="g2872"
         clip-path="url(#clipPath2876)">
        <g
           id="g2878"
           transform="translate(435.5957,475.043)">
          <path
             d="M 0,0 V 0 L -0.017,-0.015 Z"
             style="fill:#424143;fill-opacity:1;fill-rule:nonzero;stroke:none"
             id="path2880"
             inkscape:connector-curvature="0" />
        </g>
      </g>
    </g>
  </g>
</svg>
